<svg version="1.2" xmlns="http://www.w3.org/2000/svg" viewBox="0 0 620 238" width="620" height="238">
	<title>smoovies-1-svg</title>
	<style>
		.s0 { fill: #000000 } 
	</style>
	<g id="Layer">
		<path id="Layer" fill-rule="evenodd" class="s0" d="m215.1 8h194.1l6.8 6.8c0 10.2 0 37.5 0 37.9 0.1 0.5-2 1.1-4.5 1.5-2.6 0.3-5.7 1.4-7 2.2-5.2 3.4-7.3 12.1-4.4 18.1 2 4.1 5.8 6.5 11.5 7.3l4.9 0.7v18.6c0 20.2-0.4 21.8-6.2 25.6-2.5 1.7-8.7 1.8-98.4 1.8-104.3 0-99.4 0.3-102.5-5.7-1.1-2-1.4-7.3-1.4-21.8v-19h3.9c7.9 0 14.8-7.8 13.6-15.4-1.1-7.4-7.1-12.6-14.5-12.6h-3v-39.3l3.6-3.3zm96.4 7c-71.1 0-93.4 0.3-94.3 1.2-0.8 0.8-1.2 5.7-1.1 15.7v14.6l5.2 2.5c3.7 1.8 6.1 4 8.5 7.4 2.8 4.2 3.2 5.6 3.2 11.5 0 5.7-0.4 7.4-2.9 11.3-3.1 4.9-7.2 8.3-11.4 9.3l-2.7 0.7v14.7c0 10.1 0.4 15.1 1.2 15.9 0.9 0.9 23.4 1.2 94.9 1.2 84.6 0 93.9-0.2 95.4-1.6 1.3-1.3 1.5-3.9 1.3-15.7l-0.3-14-3.3-1.1c-5-1.7-9.7-6-12.2-11.1-1.8-3.7-2.1-5.9-1.8-11 0.5-8.5 4.1-13.8 12.1-17.9l5.7-2.9v-13.8c0-13.1-0.1-13.9-2.2-15.3-2-1.4-12.7-1.6-95.3-1.6z"/>
		<path id="Layer" fill-rule="evenodd" class="s0" d="m311.8 30c39.5 0 61 0.4 62.3 1 4.6 2.5 4.9 5 4.9 37 0 25.4-0.2 30.6-1.6 33.1-3 5.9-2.8 5.9-65.4 5.9-62.6 0-62.4 0-65.4-5.9-1.4-2.5-1.6-7.7-1.6-32.5 0-30.7 0.4-33.7 4.3-36.8 2-1.6 6.9-1.8 62.5-1.8zm58.7 7.5l-57.5-0.2c-31.6-0.2-58.1 0.1-58.8 0.5-0.9 0.7-1.2 7.5-1 30.8l0.3 29.9h117z"/>
		<path id="Layer" class="s0" d="m312.3 45.2c0.6 0.3 2.3 3.4 3.7 6.9 3.6 9.2 3.2 8.9 11.6 8.9 6.1 0 7.6 0.3 8.1 1.7 0.5 1.2-0.4 2.4-2.7 4.2-1.9 1.4-4.7 3.7-6.3 5.1l-2.9 2.6 2.1 7.2c3.2 10.7 2.1 11.4-7.6 5.1l-6.3-4.1-6.5 4.2c-6.2 4-10.4 4.8-9.2 1.7 0.3-0.7 1.3-4.1 2.2-7.5l1.8-6.3-2.3-2.4c-1.2-1.3-4-3.6-6.1-5.1-2.2-1.5-3.9-3.5-3.9-4.5 0-1.7 0.9-1.9 7.9-1.9 8.3 0 9.2-0.5 10.6-5 0.4-1.4 1.6-4.4 2.6-6.8 1.1-2.5 2.4-4.2 3.2-4z"/>
		<path id="Layer" class="s0" d="m61 139.6c3.3 1.5 6.5 3.3 7.1 4 1.5 1.8 0.5 5.2-2.5 8.9l-2.4 3-6.2-3.3c-12.5-6.4-24-2.9-24 7.2 0 5.8 3.1 8.5 14.2 12.1 10.8 3.6 14.6 5.6 18.5 9.7 4.2 4.3 5.3 7.6 5.3 15.1-0.1 10.6-4.9 18.5-14.5 23.5-4.3 2.3-6.2 2.6-14 2.6-10.3 0-17.5-2.3-23.7-7.4l-3.8-3.1 2.3-4c2.9-5.3 4.6-6.2 8.3-4.2 10 5.5 12 6.3 16.6 6.3 9.6 0 14.8-4.4 14.8-12.5 0-5.6-4-8.6-16.6-12.9-5.8-1.9-12.1-4.7-14-6.1-5-3.8-7.6-9.7-7.7-17 0-11.9 6.8-20.9 18.2-24.2 6.8-1.9 16.9-0.9 24.1 2.3z"/>
		<path id="Layer" fill-rule="evenodd" class="s0" d="m269.1 159.3c7.7 16.5 4.7 38.3-7 50.9-9.4 10.2-25.3 14.8-40.3 11.7-19.5-4.1-32.8-21.3-32.8-42.4 0-21.1 13.7-38.6 33.2-42.4 19.6-3.9 38.9 5.3 46.9 22.2zm-47.8-8.7c-10.3 3.8-16.3 14.3-16.3 28.7 0 9.8 1 13.7 4.9 19.9 7.8 12.2 27.2 14.6 38.5 4.7 6.7-5.9 9-12.2 9.1-24.4 0-8.3-0.4-10.8-2.3-15-2.8-6.1-6.4-10-11.7-12.7-5.3-2.8-16.4-3.4-22.2-1.2z"/>
		<path id="Layer" fill-rule="evenodd" class="s0" d="m362.2 159.5c12.3 26.4-1.3 56.7-28 62.4-34.3 7.2-60.9-24.3-49.2-58.3 4.7-13.7 16.1-23.8 30.2-26.5 20.1-4 38.8 4.9 47 22.4zm-55.8-3c-6.8 6.8-8.8 13-8.2 25.4 0.7 13.9 6.4 23.1 16.6 26.5 13.7 4.7 27.9-0.9 33.6-13.3 1.7-3.8 2.1-6.5 2.1-15.6-0.1-9.5-0.4-11.7-2.4-15.8-3-6.2-9.9-12.2-15.6-13.6-10.7-2.7-19.1-0.6-26.1 6.4z"/>
		<path id="Layer" class="s0" d="m604.4 143.4c2 1.6 2 1.7-0.2 6.1-1.2 2.5-2.8 4.8-3.6 5.1-0.8 0.3-3.7-0.7-6.5-2.2-9.6-5-19.5-4.2-23.2 2-4.6 7.5-0.9 12.1 14.6 17.7 12.4 4.5 17 7.6 20.3 14 3.2 5.9 2.7 15.1-1.2 22.7-8.2 16.1-33.5 18.9-50.5 5.4-2.3-1.8-2.3-2-0.7-5.1 1-1.8 2.6-4.1 3.6-5.1 1.9-1.9 2.1-1.9 9.7 2.1 7.2 3.8 8.3 4.1 14.1 3.7 5.4-0.3 6.7-0.8 9.4-3.5 2.5-2.5 3.1-4 3.2-7.7 0.1-6.2-3.3-9.7-12.7-12.6-4-1.3-9.5-3.3-12.2-4.5-20.4-8.9-16.9-37.9 5.2-44.1 9.3-2.7 23.4 0.1 30.7 6z"/>
		<path id="Layer" class="s0" d="m85 136.9l7.7 0.3 7.8 0.3 14.9 28.3 14.9 28.2 13.9-26.7c7.7-14.8 14.7-27.6 15.6-28.6 1.2-1.3 3.1-1.7 8.4-1.7h6.8v42.5 42.5h-6.5-6.5l-0.2-30.4-0.3-30.4-13 24.7c-12 22.6-13.3 24.6-16.2 25.5-2.4 0.6-3.8 0.5-5.6-0.7-1.4-0.9-7.4-10.8-14.6-24.4-6.8-12.5-12.7-23.2-13.2-23.8-0.5-0.5-0.9 11.1-0.9 29.3v30.2h-6.5-6.5v-42.5z"/>
		<path id="Layer" class="s0" d="m374.7 137c5.4 0 7.4 0.4 8.6 1.8 1.5 1.6 18.9 46.1 23.2 59.2 1.5 4.4 2 5.1 2.5 3.5 11.5-31.8 23.4-62.3 24.7-63.3 1-0.7 4.6-1.2 8.5-1.2h6.8l-1.5 3.7c-0.8 2.1-8.4 21.1-16.8 42.3l-15.2 38.5-7 0.3-7 0.3-16.2-40.8c-8.9-22.4-16.5-41.6-16.9-42.6-0.5-1.5 0.1-1.7 6.3-1.7z"/>
		<path id="Layer" class="s0" d="m458 137h7.5 7.5v42.5 42.5h-7.5-7.5v-42.5z"/>
		<path id="Layer" class="s0" d="m492 137h26 26v6.5 6.5h-18.5-18.5v11.5 11.5h14.5 14.5v6 6h-14.5-14.5v12 12h18.5 18.5v6.5 6.5h-26-26v-42.5z"/>
	</g>
</svg>