<?xml version="1.0" standalone="no"?>
<!DOCTYPE svg PUBLIC "-//W3C//DTD SVG 20010904//EN"
 "http://www.w3.org/TR/2001/REC-SVG-20010904/DTD/svg10.dtd">
<svg version="1.0" xmlns="http://www.w3.org/2000/svg"
 width="1580.000000pt" height="1580.000000pt" viewBox="0 0 1580.000000 1580.000000"
 preserveAspectRatio="xMidYMid meet">
<metadata>
Created by potrace 1.14, written by Peter Selinger 2001-2017
</metadata>
<g transform="translate(0.000000,1580.000000) scale(0.100000,-0.100000)"
fill="#000000" stroke="none">
<path d="M1026 12323 c-1 -1 -27 -5 -57 -8 -75 -8 -83 -10 -97 -19 -6 -4 -12
-5 -12 -2 0 10 -133 -44 -200 -81 -69 -37 -143 -95 -199 -153 -72 -75 -161
-211 -161 -245 0 -8 -4 -15 -10 -15 -5 0 -10 -6 -10 -14 0 -8 -5 -27 -12 -43
-6 -15 -11 -31 -10 -35 1 -4 -3 -20 -9 -35 -6 -15 -13 -50 -16 -78 -4 -27 -7
-642 -7 -1365 l-1 -1315 170 -2 c179 -2 254 -7 295 -17 14 -3 36 -8 50 -10 36
-6 183 -57 198 -68 6 -6 12 -7 12 -3 0 5 8 2 18 -7 9 -8 28 -20 42 -26 126
-63 264 -187 358 -324 18 -26 32 -51 32 -56 0 -6 3 -12 8 -14 17 -8 91 -185
108 -260 10 -46 14 -65 21 -103 9 -54 9 -237 -1 -305 -39 -280 -212 -553 -452
-713 -58 -38 -169 -97 -194 -103 -3 0 -14 -4 -25 -8 -43 -17 -51 -19 -70 -23
-11 -2 -27 -6 -35 -10 -8 -3 -22 -7 -30 -8 -8 -1 -40 -6 -70 -10 -77 -12 -85
-13 -270 -14 l-165 -1 1 -1327 c1 -731 4 -1345 8 -1365 46 -241 175 -438 376
-574 44 -30 134 -76 145 -75 3 1 19 -6 35 -14 17 -9 30 -13 30 -9 0 4 7 0 17
-7 9 -8 18 -13 20 -11 2 2 29 -2 61 -9 46 -11 1391 -13 6952 -12 3793 0 6916
3 6940 6 60 8 97 16 145 29 22 6 45 12 50 14 23 5 124 55 172 86 129 83 224
190 301 337 24 47 43 86 42 86 -2 0 2 16 8 35 6 19 14 46 16 60 3 14 5 25 7
25 1 0 2 11 3 25 1 14 4 30 8 35 3 6 6 609 6 1340 l0 1330 -172 1 c-157 1
-245 6 -307 20 -13 3 -33 7 -44 9 -40 8 -50 11 -62 18 -7 5 -13 6 -13 3 0 -3
-17 2 -37 11 -51 21 -76 30 -88 33 -5 1 -17 7 -25 14 -8 6 -33 21 -55 31 -22
11 -46 26 -53 33 -8 6 -23 17 -34 23 -38 20 -158 133 -213 200 -81 98 -181
307 -201 419 -5 29 -15 95 -18 123 -2 15 -6 30 -9 33 -3 4 -2 16 3 28 4 13 4
29 0 36 -5 8 -6 19 -2 25 3 5 7 35 9 65 2 51 10 125 13 125 1 0 4 11 6 25 18
98 97 271 168 370 39 54 178 197 227 233 80 60 280 157 350 171 13 2 46 9 72
15 27 6 52 9 57 6 5 -3 11 -1 14 4 3 5 19 7 36 6 16 -1 30 2 30 7 0 5 5 6 12
2 14 -9 76 -9 85 -1 3 4 14 2 24 -4 13 -7 19 -6 19 1 0 7 6 8 18 1 10 -5 24
-6 32 -1 8 5 21 5 30 0 9 -5 22 -5 30 0 8 5 18 6 23 3 5 -3 23 -6 42 -7 l33
-1 0 1340 c0 885 -4 1344 -10 1353 -6 6 -8 12 -5 12 3 0 -1 24 -9 53 -8 28
-16 59 -18 67 -6 25 -39 104 -48 116 -4 6 -19 32 -32 57 -41 77 -134 180 -220
243 -34 24 -66 49 -73 54 -7 6 -18 10 -24 10 -7 0 -20 6 -28 13 -9 7 -41 23
-71 34 -51 20 -83 30 -165 49 -26 6 -13833 13 -13839 7z m13779 -582 c51 -17
122 -74 149 -120 11 -20 19 -36 17 -36 -3 0 2 -11 9 -25 12 -20 15 -142 17
-655 2 -346 4 -634 4 -640 0 -5 -1 -34 -4 -62 -2 -29 0 -53 4 -53 5 0 6 -7 3
-15 -10 -24 -11 -98 -2 -122 4 -12 4 -24 0 -27 -7 -4 -7 -26 -2 -101 1 -16 1
-32 0 -35 -5 -15 -5 -60 1 -60 4 0 3 -16 -1 -36 -5 -20 -5 -46 -1 -57 4 -11 4
-39 0 -61 -4 -24 -3 -46 2 -53 7 -7 6 -14 -1 -18 -6 -3 -7 -12 -3 -18 6 -11 6
-78 -1 -84 -2 -2 -12 -5 -22 -7 -71 -15 -123 -29 -200 -56 -49 -17 -95 -32
-102 -34 -7 -1 -18 -8 -24 -14 -7 -7 -17 -12 -24 -12 -21 0 -138 -63 -201
-108 -18 -13 -33 -20 -33 -17 0 3 -6 1 -12 -5 -34 -28 -59 -48 -84 -66 -115
-81 -276 -257 -368 -401 -54 -85 -126 -226 -126 -247 0 -8 -3 -16 -8 -18 -6
-2 -60 -150 -66 -183 -2 -5 -8 -37 -15 -69 -28 -127 -38 -234 -35 -369 3 -146
6 -178 23 -269 15 -78 18 -89 32 -138 7 -25 13 -49 14 -55 1 -16 44 -122 83
-205 47 -101 114 -210 180 -295 126 -161 358 -361 485 -417 15 -7 27 -16 27
-20 0 -4 4 -8 9 -8 5 0 42 -15 82 -34 40 -19 77 -32 81 -30 4 3 8 0 8 -5 0 -6
8 -11 18 -11 10 0 22 -4 28 -10 5 -5 21 -11 34 -14 14 -2 25 -5 25 -6 0 -1 7
-3 15 -5 8 -1 35 -8 60 -15 25 -7 56 -14 70 -16 42 -8 52 -14 46 -29 -3 -8 -1
-15 4 -15 5 0 6 -10 2 -22 -9 -28 -9 -49 1 -65 4 -7 3 -22 -3 -33 -8 -15 -8
-25 -1 -33 6 -8 6 -18 1 -27 -5 -9 -5 -19 1 -27 7 -8 7 -19 -1 -33 -8 -14 -8
-25 -1 -33 6 -8 6 -18 1 -27 -5 -9 -5 -19 1 -27 7 -8 7 -18 -1 -32 -7 -13 -7
-27 -2 -37 5 -9 6 -33 2 -54 -4 -21 -4 -44 1 -51 4 -7 4 -22 -1 -33 -4 -12 -4
-30 0 -41 4 -11 4 -32 -1 -47 -4 -14 -5 -29 -2 -32 10 -9 10 -50 0 -69 -5 -11
-4 -23 2 -30 6 -8 6 -18 1 -27 -5 -9 -5 -19 1 -27 7 -8 7 -19 -1 -33 -8 -14
-8 -25 -1 -33 6 -8 6 -18 1 -27 -5 -9 -5 -19 1 -27 7 -8 7 -19 -1 -33 -8 -14
-8 -25 -1 -33 6 -8 6 -18 1 -27 -5 -9 -5 -19 1 -27 7 -8 7 -19 -1 -33 -8 -14
-8 -25 -1 -33 6 -8 6 -18 1 -27 -5 -9 -5 -19 1 -27 7 -8 7 -19 -1 -33 -8 -14
-8 -25 -1 -33 6 -8 6 -18 1 -27 -5 -9 -5 -19 1 -27 7 -8 7 -18 -1 -32 -7 -15
-7 -21 0 -21 7 0 7 -6 0 -21 -8 -14 -8 -24 -1 -32 6 -8 6 -18 1 -27 -5 -9 -5
-19 1 -27 7 -8 7 -19 -1 -33 -8 -14 -8 -25 -1 -33 6 -8 6 -18 1 -27 -5 -9 -5
-19 1 -27 7 -8 7 -19 -1 -33 -8 -14 -8 -25 -1 -33 6 -8 6 -18 1 -27 -5 -9 -5
-19 1 -27 7 -8 7 -19 -1 -33 -8 -14 -8 -25 -1 -33 6 -8 6 -18 1 -27 -5 -9 -5
-19 1 -27 7 -8 7 -19 -1 -33 -8 -14 -8 -25 -1 -33 6 -8 6 -18 1 -27 -5 -9 -5
-19 1 -27 6 -7 8 -17 4 -24 -4 -6 -9 -32 -10 -58 -3 -46 -33 -131 -47 -131 -5
0 -8 -5 -8 -11 0 -28 -94 -91 -155 -104 -35 -8 -13762 -11 -13785 -3 -49 16
-75 32 -116 70 -42 39 -83 98 -68 98 4 0 1 7 -6 15 -7 8 -9 15 -5 15 4 0 3 6
-2 13 -7 8 -10 378 -10 1044 l-1 1032 52 11 c28 6 62 14 75 16 13 3 56 16 95
30 39 14 76 27 82 28 24 4 212 101 267 138 32 21 62 38 67 38 4 0 10 7 14 15
3 8 10 15 16 15 6 0 22 10 34 23 13 12 38 32 54 45 56 43 191 186 242 257 27
39 54 75 59 81 16 20 98 168 126 229 46 100 96 258 111 350 1 11 5 31 9 45 32
144 23 437 -20 618 -3 12 -7 30 -9 40 -22 96 -83 257 -138 359 -41 77 -98 167
-109 171 -5 2 -9 10 -9 18 0 8 -4 14 -10 14 -5 0 -10 5 -10 10 0 10 -17 31
-115 138 -27 30 -51 58 -53 63 -2 5 -7 9 -12 9 -4 0 -23 14 -41 32 -57 53
-294 218 -314 218 -2 0 -36 15 -77 34 -77 37 -229 91 -275 100 -61 11 -89 17
-99 21 -9 2 -11 276 -10 1047 l1 1043 24 47 c45 93 109 137 226 156 22 4 3118
7 6880 7 5727 0 6847 -3 6880 -14z"/>
<path d="M3717 10714 c-1 -1 -29 -4 -62 -7 -88 -9 -123 -16 -192 -42 -119 -45
-194 -95 -285 -188 -47 -47 -151 -198 -151 -217 1 -3 -4 -16 -9 -30 -6 -14
-11 -29 -12 -35 -1 -5 -4 -14 -8 -20 -3 -5 -9 -32 -13 -60 -5 -27 -10 -57 -12
-65 -4 -21 -4 -4073 1 -4243 4 -126 17 -217 43 -277 3 -8 7 -20 8 -26 6 -24
75 -140 115 -191 60 -78 162 -158 258 -204 78 -38 99 -46 147 -54 11 -2 42 -8
69 -13 48 -10 8513 -8 8566 1 115 21 225 65 316 127 52 36 149 130 174 169 8
13 21 30 28 37 18 18 82 159 82 178 0 9 4 16 8 16 4 0 8 10 9 23 0 12 6 45 12
72 7 35 10 713 8 2245 -2 2085 -3 2197 -20 2245 -10 28 -20 57 -22 65 -13 58
-95 190 -159 259 -96 101 -251 192 -366 215 -14 3 -36 8 -50 12 -19 5 -8476
13 -8483 8z m8418 -578 c11 -5 22 -12 25 -15 3 -3 14 -11 25 -17 11 -6 30 -32
43 -57 l24 -46 0 -2123 c0 -2308 3 -2164 -53 -2217 -62 -59 15 -55 -1174 -56
-599 0 -1096 -4 -1102 -8 -7 -5 -13 -5 -13 0 0 12 -1303 10 -1312 -2 -5 -7 -8
-7 -8 0 0 6 -22 10 -50 10 -27 0 -50 -3 -50 -7 0 -4 -10 -4 -22 0 -27 9 -100
8 -117 -2 -6 -4 -11 -3 -11 1 0 5 -20 8 -45 8 -25 0 -45 -3 -45 -7 0 -4 -10
-4 -22 0 -27 9 -100 8 -117 -2 -6 -4 -11 -3 -11 1 0 12 -94 10 -102 -2 -5 -7
-8 -6 -8 0 0 9 -89 12 -125 5 -5 -1 -12 -1 -15 0 -15 6 -80 4 -80 -2 0 -4 -10
-4 -22 0 -27 9 -100 8 -117 -2 -6 -4 -11 -3 -11 1 0 12 -94 10 -102 -2 -5 -7
-8 -6 -8 0 0 7 -24 10 -62 8 -71 -4 -72 -4 -113 0 -16 1 -42 -1 -57 -5 -16 -3
-28 -3 -28 0 0 9 -67 8 -76 0 -3 -4 -16 -3 -28 1 -22 8 -98 6 -122 -3 -8 -3
-14 -2 -14 2 0 9 -67 9 -76 0 -3 -4 -16 -3 -28 1 -22 8 -98 6 -122 -3 -8 -3
-14 -2 -14 2 0 9 -67 9 -76 0 -3 -4 -16 -3 -28 1 -22 8 -98 6 -122 -3 -8 -3
-14 -2 -14 2 0 9 -67 9 -76 0 -3 -4 -16 -3 -28 1 -22 8 -98 6 -122 -3 -8 -3
-14 -2 -14 2 0 6 -65 8 -80 2 -3 -1 -9 -1 -15 0 -30 6 -97 5 -101 -1 -2 -4
-17 -4 -33 1 -16 4 -32 6 -34 3 -6 -5 -98 -5 -139 1 -16 2 -28 0 -28 -4 0 -4
-16 -4 -34 0 -19 4 -37 6 -39 3 -5 -4 -78 -5 -139 0 -21 1 -38 -1 -38 -5 0 -3
-13 -3 -29 2 -16 4 -32 6 -34 3 -6 -5 -98 -5 -139 1 -16 2 -28 0 -28 -4 0 -4
-16 -4 -34 0 -19 4 -37 6 -39 3 -5 -4 -78 -5 -139 0 -21 1 -38 -1 -38 -5 0 -3
-13 -3 -29 2 -16 4 -32 6 -34 3 -6 -5 -98 -5 -139 1 -16 2 -28 -1 -28 -6 0 -5
-4 -7 -10 -3 -5 3 -29 6 -52 5 -115 -1 -134 -1 -153 3 -11 2 -34 1 -52 -4 -18
-4 -36 -3 -39 2 -3 5 -10 7 -15 3 -13 -7 -113 -9 -125 -2 -5 4 -28 3 -52 -2
-23 -4 -45 -3 -48 1 -3 5 -10 7 -15 3 -11 -6 -103 -7 -134 -1 -11 2 -34 1 -52
-4 -18 -4 -36 -3 -39 2 -3 5 -10 7 -15 3 -13 -7 -113 -9 -125 -2 -5 4 -28 3
-52 -2 -23 -4 -45 -3 -48 1 -3 5 -10 6 -16 3 -10 -6 -37 -6 -144 -1 -60 3
-108 32 -144 86 -21 32 -25 51 -30 164 -3 71 -2 131 2 133 3 2 3 17 -2 33 -4
15 -4 34 0 42 5 7 4 21 -1 30 -6 12 -5 20 1 24 6 4 8 11 4 16 -9 15 -10 109
-1 109 4 0 3 9 -3 20 -8 14 -8 20 0 20 6 0 8 5 5 10 -6 10 -10 114 -5 135 1 6
2 12 1 15 -7 26 -4 3553 3 3560 6 6 7 10 2 10 -4 0 2 17 14 38 24 43 76 82
120 91 51 10 8433 7 8455 -3z"/>
<path d="M7819 9567 c-31 -21 -83 -96 -74 -105 2 -3 -3 -18 -11 -34 -9 -17
-17 -37 -19 -46 -3 -17 -46 -137 -120 -337 -20 -55 -38 -104 -39 -110 -2 -5
-6 -17 -9 -25 -23 -61 -42 -116 -42 -122 0 -3 -3 -10 -7 -14 -5 -4 -8 -14 -8
-22 0 -8 -6 -28 -14 -45 -16 -36 -67 -176 -70 -193 -4 -24 -38 -64 -66 -79
-30 -15 -279 -26 -672 -29 -87 -1 -158 -3 -158 -6 0 -3 -62 -5 -138 -5 -75 0
-153 -4 -172 -10 -90 -25 -133 -136 -82 -215 20 -32 21 -33 122 -110 47 -35
87 -67 90 -70 3 -3 48 -39 100 -80 52 -41 97 -77 100 -80 3 -3 21 -17 40 -31
19 -15 46 -36 59 -48 13 -11 27 -21 30 -21 3 0 20 -12 36 -28 17 -15 51 -43
76 -62 25 -19 63 -49 85 -67 21 -17 63 -50 92 -73 58 -46 84 -91 76 -136 -2
-16 -18 -76 -35 -134 -17 -58 -33 -112 -34 -120 -2 -8 -4 -15 -5 -15 -1 0 -3
-7 -5 -15 -2 -8 -13 -46 -25 -85 -12 -38 -23 -77 -25 -85 -1 -8 -11 -42 -21
-75 -10 -33 -19 -64 -20 -70 -1 -5 -12 -42 -24 -82 -12 -39 -23 -78 -24 -85
-4 -20 -35 -125 -57 -195 -36 -112 -21 -181 47 -224 61 -38 126 -26 211 37 17
13 34 24 38 24 3 0 11 5 18 11 7 6 80 55 162 109 83 55 159 106 170 115 10 8
25 15 31 15 7 0 14 4 16 9 2 6 177 125 259 176 9 5 37 23 63 38 25 16 46 32
46 36 0 14 66 30 103 26 21 -3 60 -21 87 -40 27 -19 54 -35 59 -35 5 0 11 -3
13 -8 2 -4 44 -34 93 -67 50 -32 223 -148 387 -256 163 -109 311 -202 330
-207 67 -18 131 12 165 78 25 50 22 63 -62 350 -18 62 -17 60 -44 155 -11 39
-29 102 -40 140 -12 39 -24 81 -27 95 -2 14 -8 34 -11 45 -4 11 -8 25 -9 30
-1 6 -9 33 -17 60 -9 28 -23 77 -32 110 -10 33 -20 67 -23 75 -10 30 -15 67
-13 107 1 20 42 69 82 98 24 17 113 88 129 102 8 8 38 30 65 51 28 20 55 42
60 48 6 6 96 78 200 159 105 82 192 152 195 155 3 3 21 17 40 31 19 15 49 39
65 53 17 14 33 26 37 26 3 0 16 15 27 33 49 80 18 182 -66 216 -18 7 -81 14
-142 16 -60 2 -114 6 -120 9 -5 4 -12 3 -15 -2 -3 -5 -20 -7 -38 -5 -32 3
-119 6 -587 17 -199 5 -227 8 -256 26 -40 25 -40 25 -135 290 -45 124 -85 234
-89 245 -4 11 -13 36 -20 55 -41 118 -73 208 -81 225 -4 11 -15 40 -24 65 -66
198 -82 227 -138 256 -41 21 -100 17 -139 -9z"/>
</g>
</svg>
